
<svg width="494px" height="94px" viewBox="0 0 494 94" version="1.1" xmlns="http://www.w3.org/2000/svg" xmlns:xlink="http://www.w3.org/1999/xlink">
    <g id="Page-1" stroke="none" stroke-width="1" fill="none" fill-rule="evenodd">
        <g id="coindesk" transform="translate(0.619340, 0.162085)" fill="#637381" fill-rule="nonzero">
            <path d="M137.98066,66.0379153 C128.88066,66.0379153 123.28066,57.8379153 123.28066,46.5379153 C123.28066,35.3379153 127.98066,27.0379153 137.98066,27.0379153 C144.48066,27.0379153 148.78066,31.2379153 149.58066,36.7379153 L164.78066,36.7379153 C163.98066,29.8379153 160.88066,23.8379153 155.58066,19.8379153 C151.18066,16.4379153 145.18066,14.4379153 138.08066,14.4379153 C119.78066,14.4379153 107.88066,28.3379153 107.88066,46.5379153 C107.88066,64.9379153 120.18066,78.4379153 138.18066,78.4379153 C146.78066,78.4379153 153.18066,76.0379153 157.78066,71.4379153 C161.98066,67.4379153 164.78066,61.8379153 165.18066,55.7379153 L149.98066,55.7379153 C149.28066,61.7379153 144.78066,66.0379153 137.98066,66.0379153 Z" id="Path"></path>
            <path d="M193.18066,31.9379153 C179.08066,31.9379153 169.68066,42.0379153 169.68066,55.2379153 C169.68066,68.4379153 179.08066,78.5379153 193.18066,78.5379153 C207.38066,78.5379153 216.58066,68.4379153 216.58066,55.2379153 C216.58066,42.0379153 207.28066,31.9379153 193.18066,31.9379153 Z M193.08066,68.5379153 C186.98066,68.5379153 183.78066,63.2379153 183.78066,55.2379153 C183.78066,47.2379153 186.98066,41.8379153 193.08066,41.8379153 C199.18066,41.8379153 202.48066,47.2379153 202.48066,55.2379153 C202.38066,63.2379153 199.18066,68.5379153 193.08066,68.5379153 Z" id="Shape"></path>
            <path d="M236.48066,27.2379153 C239.48066,24.2379153 239.48066,19.4379153 236.48066,16.4379153 C233.48066,13.4379153 228.68066,13.4379153 225.68066,16.4379153 C222.68066,19.4379153 222.68066,24.2379153 225.68066,27.2379153 C228.58066,30.2379153 233.48066,30.2379153 236.48066,27.2379153 Z" id="Path"></path>
            <polygon id="Path" points="218.88066 43.0379153 224.78066 43.0379153 224.78066 77.2379153 238.78066 77.2379153 238.78066 33.1379153 218.98066 33.1379153 218.98066 43.0379153"></polygon>
            <path d="M272.98066,31.8379153 C266.88066,31.8379153 262.68066,34.4379153 259.38066,39.1379153 L259.08066,39.1379153 L259.08066,33.1379153 L245.68066,33.1379153 L245.68066,77.1379153 L259.68066,77.1379153 L259.68066,52.8379153 C259.68066,47.4379153 262.78066,43.5379153 267.38066,43.5379153 C271.98066,43.5379153 274.28066,46.7379153 274.28066,51.3379153 L274.28066,77.1379153 L288.28066,77.1379153 L288.28066,48.5379153 C288.28066,38.7379153 282.58066,31.8379153 272.98066,31.8379153 Z" id="Path"></path>
            <path d="M321.08066,15.6379153 L294.88066,15.6379153 L294.88066,77.0379153 L320.08066,77.0379153 C327.78066,77.0379153 333.98066,75.0379153 338.78066,71.4379153 C345.68066,66.1379153 349.48066,57.5379153 349.48066,46.6379153 C349.48066,27.9379153 338.08066,15.6379153 321.08066,15.6379153 Z M318.98066,64.3379153 L310.08066,64.3379153 L310.08066,28.3379153 L319.18066,28.3379153 C328.68066,28.3379153 334.18066,35.5379153 334.18066,46.7379153 C334.08066,58.0379153 328.98066,64.3379153 318.98066,64.3379153 Z" id="Shape"></path>
            <path d="M390.98066,37.6379153 C387.18066,34.2379153 382.18066,32.1379153 375.98066,32.1379153 C362.58066,32.1379153 353.48066,42.2379153 353.48066,55.3379153 C353.48066,68.6379153 362.38066,78.7379153 376.88066,78.7379153 C382.48066,78.7379153 386.88066,77.2379153 390.58066,74.7379153 C394.38066,72.0379153 396.98066,68.3379153 397.98066,64.3379153 L384.38066,64.3379153 C383.18066,67.0379153 380.78066,68.7379153 377.08066,68.7379153 C371.38066,68.7379153 368.08066,65.0379153 367.18066,59.1379153 L398.78066,59.1379153 C398.78066,50.0379153 396.18066,42.4379153 390.98066,37.6379153 Z M367.18066,50.6379153 C368.08066,45.3379153 370.88066,42.0379153 376.18066,42.0379153 C380.68066,42.0379153 383.98066,45.4379153 384.48066,50.6379153 L367.18066,50.6379153 Z" id="Shape"></path>
            <path d="M426.28066,49.6379153 C420.68066,48.6379153 415.78066,48.1379153 415.78066,45.1379153 C415.78066,42.4379153 418.48066,41.1379153 421.88066,41.1379153 C425.78066,41.1379153 428.38066,42.3379153 428.88066,46.2379153 L441.78066,46.2379153 C441.08066,37.5379153 434.38066,32.1379153 421.98066,32.1379153 C411.58066,32.1379153 402.98066,36.9379153 402.98066,46.2379153 C402.98066,56.5379153 411.08066,58.6379153 418.78066,59.8379153 C424.68066,60.8379153 429.98066,61.3379153 429.98066,65.2379153 C429.98066,68.1379153 427.28066,69.6379153 423.08066,69.6379153 C418.48066,69.6379153 415.58066,67.5379153 414.98066,63.1379153 L401.78066,63.1379153 C402.18066,72.8379153 410.28066,78.8379153 423.18066,78.8379153 C434.68066,78.8379153 443.18066,73.8379153 443.18066,64.2379153 C443.08066,52.9379153 434.08066,50.9379153 426.28066,49.6379153 Z" id="Path"></path>
            <polygon id="Path" points="475.98066 49.6379153 491.48066 33.1379153 475.38066 33.1379153 462.28066 48.0379153 462.28066 15.7379153 448.48066 15.7379153 448.48066 77.2379153 462.28066 77.2379153 462.28066 63.7379153 466.48066 59.2379153 476.98066 77.2379153 493.18066 77.2379153"></polygon>
            <path d="M46.3806604,50.6379153 C48.6806604,50.6379153 50.5806604,48.7379153 50.5806604,46.4379153 C50.5806604,44.1379153 48.6806604,42.2379153 46.3806604,42.2379153 C44.0806604,42.2379153 42.1806604,44.1379153 42.1806604,46.4379153 C42.1806604,48.7379153 43.9806604,50.6379153 46.3806604,50.6379153 Z" id="Path"></path>
            <path d="M80.1806604,50.6379153 C82.4806604,50.6379153 84.3806604,48.7379153 84.3806604,46.4379153 C84.3806604,44.1379153 82.4806604,42.2379153 80.1806604,42.2379153 C77.8806604,42.2379153 75.9806604,44.1379153 75.9806604,46.4379153 C75.9806604,48.7379153 77.7806604,50.6379153 80.1806604,50.6379153 Z" id="Path"></path>
            <path d="M80.1806604,84.6379153 C82.4806604,84.6379153 84.3806604,82.7379153 84.3806604,80.4379153 C84.3806604,78.1379153 82.4806604,76.2379153 80.1806604,76.2379153 C77.8806604,76.2379153 75.9806604,78.1379153 75.9806604,80.4379153 C75.8806604,82.7379153 77.7806604,84.6379153 80.1806604,84.6379153 Z" id="Path"></path>
            <path d="M92.5806604,11.7379153 C92.1806604,5.53791527 87.1806604,0.53791527 80.9806604,0.0379152703 C76.9806604,-0.26208473 73.4806604,1.23791527 70.9806604,3.83791527 C69.0806604,5.83791527 66.4806604,6.93791527 63.7806604,6.93791527 L62.7806604,6.93791527 C59.9806604,6.93791527 57.3806604,5.73791527 55.3806604,3.73791527 C53.0806604,1.43791527 49.8806604,0.0379152703 46.3806604,0.0379152703 C42.8806604,0.0379152703 39.6806604,1.53791527 37.3806604,3.73791527 C35.3806604,5.73791527 32.7806604,6.93791527 29.9806604,6.93791527 L29.0806604,6.93791527 C26.3806604,6.93791527 23.6806604,5.83791527 21.7806604,3.93791527 C21.3806604,3.53791527 20.9806604,3.13791527 20.5806604,2.83791527 C15.8806604,-1.06208473 8.88066038,-0.86208473 4.28066038,3.13791527 C-1.21933962,8.03791527 -1.41933962,16.5379153 3.68066038,21.6379153 C3.78066038,21.7379153 3.78066038,21.7379153 3.88066038,21.8379153 C5.88066038,23.7379153 6.98066038,26.4379153 6.98066038,29.1379153 L6.98066038,30.1379153 C6.98066038,32.9379153 5.78066038,35.5379153 3.78066038,37.5379153 C1.48066038,39.8379153 0.0806603774,43.0379153 0.0806603774,46.5379153 C0.0806603774,50.0379153 1.58066038,53.2379153 3.78066038,55.5379153 C5.78066038,57.5379153 6.98066038,60.1379153 6.98066038,62.9379153 L6.98066038,64.2379153 C6.98066038,66.9379153 5.78066038,69.5379153 3.88066038,71.4379153 C1.38066038,73.8379153 -0.119339623,77.2379153 0.0806603774,81.0379153 C0.380660377,87.6379153 5.68066038,92.9379153 12.2806604,93.1379153 C16.0806604,93.2379153 19.4806604,91.7379153 21.8806604,89.2379153 C23.7806604,87.2379153 26.3806604,86.0379153 29.0806604,86.0379153 L30.1806604,86.0379153 C32.8806604,86.0379153 35.4806604,87.2379153 37.3806604,89.2379153 C39.8806604,91.8379153 43.4806604,93.3379153 47.4806604,93.1379153 C53.6806604,92.7379153 58.6806604,87.6379153 59.1806604,81.4379153 C59.6806604,74.0379153 53.8806604,67.8379153 46.5806604,67.8379153 C43.0806604,67.8379153 39.9806604,69.2379153 37.6806604,71.5379153 C35.6806604,73.5379153 33.0806604,74.6379153 30.3806604,74.6379153 L29.1806604,74.6379153 C26.4806604,74.6379153 23.7806604,73.5379153 21.7806604,71.5379153 C21.6806604,71.4379153 21.6806604,71.4379153 21.6806604,71.4379153 C19.6806604,69.4379153 18.4806604,66.8379153 18.4806604,64.0379153 L18.4806604,62.8379153 C18.4806604,60.0379153 19.6806604,57.4379153 21.6806604,55.4379153 C23.9806604,53.1379153 25.3806604,49.9379153 25.3806604,46.4379153 C25.3806604,42.9379153 23.8806604,39.7379153 21.6806604,37.4379153 C19.6806604,35.4379153 18.4806604,32.8379153 18.4806604,30.0379153 L18.4806604,29.0379153 C18.4806604,26.2379153 19.6806604,23.6379153 21.5806604,21.6379153 C21.6806604,21.5379153 21.6806604,21.5379153 21.6806604,21.5379153 C21.7806604,21.4379153 21.7806604,21.4379153 21.7806604,21.4379153 C23.7806604,19.4379153 26.3806604,18.3379153 29.1806604,18.3379153 L30.1806604,18.3379153 C32.9806604,18.3379153 35.5806604,19.5379153 37.5806604,21.5379153 C39.8806604,23.8379153 43.0806604,25.2379153 46.5806604,25.2379153 C50.0806604,25.2379153 53.2806604,23.7379153 55.5806604,21.5379153 C57.5806604,19.5379153 60.1806604,18.3379153 62.9806604,18.3379153 L63.8806604,18.3379153 C66.6806604,18.3379153 69.2806604,19.5379153 71.2806604,21.5379153 C73.5806604,23.8379153 76.7806604,25.2379153 80.2806604,25.2379153 C87.2806604,25.3379153 93.0806604,19.1379153 92.5806604,11.7379153 Z" id="Path"></path>
        </g>
    </g>
</svg>