
<svg width="593px" height="198px" viewBox="0 0 593 198" version="1.1" xmlns="http://www.w3.org/2000/svg" xmlns:xlink="http://www.w3.org/1999/xlink">
    <g id="Page-1" stroke="none" stroke-width="1" fill="none" fill-rule="evenodd">
        <g id="decrypt" transform="translate(0.400000, 0.253182)" fill="#637381">
            <path d="M81.8,0.446817919 C63.9,2.64681792 44.2,11.8468179 27.4,26.0468179 C24,28.8468179 16.9,35.7468179 16.9,36.1468179 C16.9,36.3468179 20.3,39.9468179 24.5,44.1468179 L32.1,51.8468179 L28.9,55.4468179 C17.1,68.7468179 9.1,82.2468179 4.3,96.5468179 C1.3,105.546818 0,112.946818 0,121.246818 C0,128.746818 1,134.846818 3.3,140.746818 L4.2,143.146818 L26.5,165.446818 C45.1,184.046818 49.3,188.046818 51.6,189.546818 C56.4,192.746818 62,194.946818 68.2,196.246818 C72.3,197.146818 81.8,197.446818 86.3,196.846818 C104.1,194.646818 122.5,186.246818 138.6,172.846818 C142.8,169.346818 149.9,162.646818 149.9,162.246818 C149.9,162.046818 146.4,158.446818 142.2,154.146818 L134.5,146.346818 L136.9,143.846818 C142.8,137.646818 150,127.746818 154.2,119.946818 C160.2,109.046818 164.1,97.2468179 165.4,86.4468179 C165.9,81.7468179 165.6,71.7468179 164.8,67.9468179 C163.4,61.5468179 161.2,56.3468179 157.9,51.3468179 C156.2,48.7468179 152.8,45.2468179 134,26.3468179 L112,4.34681792 L109.7,3.44681792 C106.6,2.14681792 100.2,0.646817919 96.3,0.246817919 C92.4,-0.153182081 86.3,-0.0531820812 81.8,0.446817919 Z M100.7,6.34681792 C102.3,6.74681792 104.9,7.34681792 106.3,7.84681792 C108.9,8.74681792 109,8.74681792 113.1,12.8468179 C116.7,16.4468179 117.2,16.9468179 116.3,16.8468179 C111.5,15.9468179 103.8,15.7468179 97.8,16.5468179 C78.6,18.9468179 58.8,28.6468179 40.6,44.6468179 C38.8,46.2468179 37.2,47.6468179 36.9,47.8468179 C36.6,48.0468179 35,46.7468179 30.3,42.0468179 L24.1,35.8468179 L28.1,32.3468179 C44.8,17.7468179 63.2,8.54681792 81.2,5.94681792 C86,5.24681792 96.7,5.54681792 100.7,6.34681792 Z M126.9,38.1468179 C135.7,39.4468179 143.4,43.2468179 149.1,48.9468179 C154.7,54.5468179 158.3,61.7468179 160,70.7468179 C160.7,74.7468179 160.7,83.7468179 160,88.4468179 C157.7,102.946818 151,117.846818 140.6,131.446818 C138.2,134.646818 132.5,141.346818 131.6,142.046818 C131.1,142.446818 130.5,141.946818 125.3,136.746818 C122.1,133.546818 119.5,130.846818 119.5,130.746818 C119.5,130.646818 120.4,129.546818 121.5,128.346818 C139.6,108.346818 148.1,83.3468179 142.1,67.8468179 C139.7,61.8468179 134.7,57.3468179 128.2,55.3468179 C124.9,54.3468179 119.1,53.8468179 114.8,54.3468179 C108.2,54.9468179 100.1,57.5468179 92.3,61.3468179 C84.5,65.1468179 77.4,69.9468179 70.5,76.1468179 L67.4,78.8468179 L61.5,72.9468179 L55.6,67.0468179 L58.1,64.7468179 C73.4,50.4468179 93.7,40.2468179 111.1,37.9468179 C114.6,37.6468179 123.6,37.6468179 126.9,38.1468179 Z M44.2,72.6468179 C42,75.1468179 39.2,78.6468179 37.8,80.4468179 C21.2,102.546818 13.6,126.546818 16.7,147.246818 L16.9,148.546818 L12.8,144.546818 C8.9,140.746818 8.7,140.446818 7.9,138.046818 C0.1,115.646818 9.9,84.7468179 33,58.8468179 L35.7,55.8468179 L41.9,62.0468179 L48.1,68.2468179 L44.2,72.6468179 Z M122.3,59.8468179 L123.1,60.0468179 L122.9,64.2468179 C122.7,69.2468179 122,73.3468179 121,76.8468179 C117.8,87.3468179 111.9,97.8468179 103.3,107.746818 L100,111.546818 L93.7,105.246818 L87.4,98.9468179 L90.3,95.7468179 C96.5,88.9468179 102.2,81.0468179 105.7,74.3468179 C107.6,70.7468179 110.1,64.6468179 110.8,61.8468179 C111.2,60.1468179 111.2,60.1468179 112.7,59.9468179 C113.5,59.8468179 114.4,59.7468179 114.7,59.6468179 C115.5,59.6468179 121.6,59.6468179 122.3,59.8468179 Z M104.4,64.2468179 C103,68.1468179 99.9,74.1468179 96.9,78.6468179 C93.6,83.6468179 91.3,86.6468179 86.7,91.8468179 L83.5,95.5468179 L77.2,89.2468179 L70.9,82.9468179 L73,81.0468179 C79.5,75.2468179 87.1,70.0468179 94.1,66.4468179 C97.9,64.5468179 104.1,62.0468179 105,61.9468179 C105.1,61.9468179 104.9,62.9468179 104.4,64.2468179 Z M200.2,68.0468179 C199.9,68.3468179 199.8,76.6468179 199.8,107.046818 C199.8,144.046818 199.8,145.646818 200.4,146.146818 C200.9,146.646818 202.5,146.646818 216,146.646818 C224.2,146.646818 233.1,146.446818 235.7,146.346818 C246.2,145.646818 254.3,142.246818 260.5,136.046818 C265.4,131.146818 268.5,124.346818 270.1,115.346818 C270.8,110.946818 270.8,101.746818 270.1,97.4468179 C267.5,82.9468179 259.2,73.5468179 245.9,69.7468179 C239.4,67.9468179 238.9,67.8468179 219.1,67.7468179 C204.4,67.7468179 200.5,67.7468179 200.2,68.0468179 Z M564.3,69.3468179 C564,69.6468179 563.9,72.1468179 563.9,78.5468179 L563.9,87.3468179 L560.1,87.3468179 C557.6,87.3468179 556.2,87.4468179 555.9,87.7468179 C555.4,88.2468179 555.4,98.6468179 555.9,99.2468179 C556.2,99.5468179 557.6,99.6468179 560.1,99.6468179 L563.9,99.6468179 L564,117.446818 C564.1,134.846818 564.1,135.346818 564.8,137.346818 C566.7,142.846818 570.6,145.846818 576.9,146.646818 C581.2,147.146818 587.3,146.946818 591.5,146.146818 L592.4,145.946818 L592.3,138.646818 L592.2,131.346818 L588.2,131.146818 C583.9,130.946818 583.2,130.746818 582.7,129.846818 C582.5,129.446818 582.4,123.446818 582.4,114.546818 L582.4,99.8468179 L587.5,99.7468179 L592.6,99.6468179 L592.6,93.5468179 L592.6,87.4468179 L587.5,87.3468179 L582.4,87.2468179 L582.4,78.6468179 C582.4,73.3468179 582.3,69.8468179 582.1,69.4468179 C581.8,68.8468179 581.3,68.8468179 573.3,68.8468179 C567,69.0468179 564.6,69.1468179 564.3,69.3468179 Z M237,86.2468179 C243.1,87.8468179 247.1,92.1468179 248.7,98.4468179 C249.9,103.246818 249.9,111.246818 248.6,116.246818 C247.3,121.146818 244.3,125.046818 240.3,126.946818 C236.8,128.646818 234.7,128.946818 227.5,129.146818 L221,129.346818 L221,107.346818 L221,85.3468179 L228,85.5468179 C233.1,85.6468179 235.6,85.8468179 237,86.2468179 Z M298.1,86.6468179 C288.1,88.4468179 280.4,95.0468179 277,104.646818 C272.5,117.246818 274.7,131.646818 282.3,139.746818 C286.3,143.946818 290.1,146.146818 295.9,147.646818 C307,150.446818 318.9,147.546818 326.8,140.146818 C328.7,138.446818 333.6,132.246818 333.6,131.646818 C333.6,130.946818 332.2,130.046818 326.5,127.146818 C323,125.346818 320.1,123.846818 320,123.846818 C319.9,123.846818 319.3,124.746818 318.7,125.846818 C317.3,128.546818 314.4,131.546818 312.3,132.646818 C306,135.746818 298.6,133.946818 295.4,128.546818 C294.5,126.946818 293.6,124.146818 293.6,122.646818 L293.6,121.546818 L313.6,121.546818 C328.7,121.546818 333.6,121.446818 333.9,121.146818 C334.4,120.646818 334.4,116.646818 333.8,112.646818 C332.2,101.946818 327.7,94.2468179 320.5,89.9468179 C318.1,88.5468179 313.5,86.9468179 310.5,86.4468179 C307.5,85.9468179 301.1,86.0468179 298.1,86.6468179 Z M363.8,86.2468179 C361,86.6468179 358.7,87.1468179 356.9,87.7468179 C346.8,90.9468179 340.1,99.2468179 338,111.046818 C337.2,115.546818 337.5,122.746818 338.6,127.046818 C340.1,132.846818 342.3,136.646818 346.3,140.446818 C349.8,143.746818 353.9,146.046818 359.4,147.546818 C361,148.046818 362.6,148.146818 366.7,148.146818 C371.4,148.146818 372.1,148.046818 374.7,147.246818 C379.9,145.646818 383.9,143.246818 387.5,139.446818 C389.9,136.946818 392.6,133.246818 392.6,132.446818 C392.6,132.146818 392.1,131.646818 391.6,131.246818 C389.5,129.946818 379.8,125.146818 379.3,125.146818 C379,125.146818 378.5,125.846818 378,126.846818 C376.8,129.446818 375.2,131.146818 372.7,132.346818 C370.8,133.246818 370.2,133.446818 368.1,133.346818 C365.3,133.346818 363.5,132.646818 361.2,130.646818 C355.2,125.346818 354.8,110.646818 360.5,103.946818 C364.1,99.7468179 370.8,99.7468179 375.1,103.846818 C375.8,104.546818 376.8,105.846818 377.3,106.746818 C377.8,107.646818 378.4,108.446818 378.7,108.446818 C379.4,108.646818 391.7,101.546818 391.9,100.846818 C392,100.246818 390.7,98.2468179 388.8,95.8468179 C385.7,92.0468179 379.6,88.3468179 374.3,87.1468179 C371.6,86.4468179 365.8,86.0468179 363.8,86.2468179 Z M524.2,86.9468179 C520.9,87.5468179 517.9,88.7468179 515.5,90.5468179 L513.6,91.9468179 L513.5,89.9468179 L513.4,87.9468179 L505.7,87.8468179 C498.9,87.7468179 497.9,87.8468179 497.4,88.3468179 C496.8,88.8468179 496.8,90.3468179 496.8,127.346818 C496.8,156.846818 496.9,165.846818 497.2,166.146818 C497.8,166.746818 514.6,166.746818 515.1,166.146818 C515.4,165.846818 515.5,162.846818 515.5,154.746818 L515.5,143.746818 L518.6,145.346818 C522.8,147.446818 525.4,147.946818 530.3,147.746818 C536,147.446818 539.4,146.346818 543.1,143.546818 C548.3,139.646818 551.7,133.646818 553.6,125.346818 C554.6,120.946818 554.6,113.246818 553.6,108.546818 C552.3,102.346818 550.2,98.1468179 546.4,94.1468179 C540.8,87.9468179 532.6,85.4468179 524.2,86.9468179 Z M73.2,92.8468179 C78.6,98.2468179 78.9,98.6468179 78.5,99.2468179 C78.2,99.5468179 76.9,101.046818 75.5,102.646818 C69.9,109.046818 64.7,116.846818 61.2,124.046818 C58.7,129.146818 57.2,133.346818 55.7,139.046818 C53.8,146.546818 53.8,154.846818 55.9,160.646818 C59.8,171.646818 70.1,176.846818 84.5,175.146818 C98.4,173.446818 114.4,165.446818 128.1,153.346818 L131,150.746818 L136.9,156.646818 L142.8,162.546818 L140.3,164.846818 C127.5,176.746818 110.4,186.446818 95.6,190.046818 C89.6,191.546818 85.4,192.046818 79.7,192.046818 C72.1,192.046818 66.5,191.046818 60.6,188.446818 C53,185.146818 46,178.646818 42.4,171.446818 C37.9,162.546818 36.6,151.546818 38.6,139.646818 C41.4,123.046818 50.7,105.246818 64.4,89.9468179 C65.8,88.3468179 67.1,87.0468179 67.2,87.0468179 C67.3,87.0468179 70,89.6468179 73.2,92.8468179 Z M429,87.4468179 C425.1,88.0468179 420.2,89.8468179 417,91.9468179 L416,92.6468179 L416,90.5468179 C416,89.3468179 415.8,88.3468179 415.6,88.0468179 C415.3,87.7468179 413,87.6468179 407.1,87.6468179 C399.7,87.6468179 398.9,87.6468179 398.5,88.2468179 C398,88.7468179 398,91.2468179 398,117.246818 C398,144.346818 398,145.646818 398.6,146.146818 C399.1,146.646818 400.2,146.646818 407.4,146.646818 C413.8,146.646818 415.7,146.546818 416,146.246818 C416.2,145.946818 416.4,140.046818 416.4,127.946818 C416.5,111.146818 416.5,109.946818 417.1,108.846818 C418.3,106.446818 420.4,105.446818 426.5,104.446818 C428.8,104.046818 431.1,103.646818 431.6,103.546818 L432.5,103.346818 L432.5,95.5468179 C432.5,87.7468179 432.4,86.8468179 431.4,87.0468179 C431,87.1468179 430,87.2468179 429,87.4468179 Z M437.2,88.1468179 C437,88.4468179 436.9,88.9468179 437,89.4468179 C437.1,89.8468179 439.8,98.6468179 443,108.846818 C455.8,150.046818 455.1,147.646818 454.2,149.246818 C453.4,150.846818 452,151.146818 447,151.146818 C443.9,151.146818 442.3,151.246818 442.1,151.546818 C441.8,151.846818 441.7,153.846818 441.7,158.746818 C441.7,163.646818 441.8,165.646818 442.1,165.946818 C442.6,166.446818 455.3,166.446818 458.6,166.046818 C464.1,165.246818 468.6,161.346818 471.2,155.146818 C471.8,153.846818 476.9,138.346818 482.6,120.746818 C491.3,94.1468179 493,88.6468179 492.6,88.2468179 C492.3,87.8468179 490.8,87.7468179 482.9,87.7468179 L473.6,87.7468179 L473.3,89.1468179 C473.1,89.9468179 471.2,98.2468179 469,107.746818 C466.8,117.246818 465,125.146818 464.8,125.246818 C464.7,125.346818 462.6,116.946818 460.3,106.646818 L456,87.7468179 L446.7,87.7468179 C439,87.7468179 437.5,87.7468179 437.2,88.1468179 Z M309.5,100.646818 C312.5,102.046818 314.5,104.746818 315.1,108.046818 L315.3,109.246818 L304.6,109.246818 L293.9,109.246818 L294.1,108.246818 C294.5,106.446818 296.2,103.546818 297.6,102.346818 C300,100.246818 302.1,99.5468179 305.4,99.7468179 C307,99.8468179 308.2,100.146818 309.5,100.646818 Z M530.2,101.146818 C533,102.646818 535.1,105.746818 536.1,109.946818 C536.8,113.046818 536.8,120.446818 536,123.546818 C535.3,126.246818 533.9,129.046818 532.4,130.946818 C530,133.846818 525.3,134.646818 521.5,132.746818 C517.1,130.546818 515,125.646818 515,117.446818 C515,109.846818 517,104.446818 520.7,101.746818 C523.6,99.7468179 527.1,99.5468179 530.2,101.146818 Z M92.8,117.346818 C84.6,125.046818 74.1,131.946818 65.4,135.446818 C63.6,136.146818 62,136.746818 61.9,136.746818 C61.8,136.746818 62.2,135.646818 62.7,134.246818 C66.5,123.746818 73.1,113.046818 81,104.546818 L82.9,102.546818 L89.2,108.746818 L95.5,114.946818 L92.8,117.346818 Z M105.4,125.146818 L111.5,131.246818 L109.6,133.046818 C99.6,142.446818 84.2,150.946818 73.3,153.246818 C70.6,153.846818 64.6,154.446818 61.7,154.446818 L59.8,154.446818 L59.8,149.846818 C59.8,147.346818 59.9,144.646818 60,144.046818 L60.2,142.846818 L64.1,141.546818 C74,138.346818 86.6,130.446818 95.9,121.646818 C97.4,120.246818 98.8,119.046818 99,119.046818 C99.2,119.046818 102.1,121.746818 105.4,125.146818 Z" id="Shape"></path>
        </g>
    </g>
</svg>