<svg width="120" height="120" viewBox="0 0 120 120" fill="none" xmlns="http://www.w3.org/2000/svg">
<circle cx="60" cy="60" r="39.5" stroke="white"/>
<circle cx="60" cy="60" r="59" stroke="white" stroke-width="2"/>
<path d="M25.7435 23.0278L24.3032 24.4042C24.0364 24.2073 23.7607 24.0704 23.4761 23.9936C23.1891 23.9143 22.9021 23.889 22.6151 23.9176C22.3281 23.9463 22.0487 24.0291 21.7768 24.1661C21.5051 24.2981 21.2486 24.4794 21.0072 24.71C20.5785 25.1198 20.3016 25.5907 20.1765 26.1229C20.049 26.6525 20.089 27.2135 20.2966 27.8059C20.5018 28.3958 20.8877 28.9872 21.4545 29.5803C22.0311 30.1836 22.6106 30.6023 23.193 30.8366C23.7755 31.0658 24.3317 31.1286 24.8615 31.0251C25.3914 30.9165 25.8694 30.6586 26.2956 30.2513C26.5318 30.0256 26.7231 29.7838 26.8696 29.5259C27.0163 29.263 27.1128 28.9914 27.1594 28.7111C27.2085 28.4284 27.2036 28.1432 27.1448 27.8556C27.0886 27.5655 26.9719 27.284 26.7948 27.0113L28.2424 25.6425C28.5467 26.0689 28.766 26.5322 28.9003 27.0326C29.0372 27.5305 29.0821 28.0426 29.035 28.569C28.9855 29.0928 28.8357 29.6094 28.5855 30.1186C28.3329 30.6252 27.9717 31.1031 27.5019 31.5521C26.8087 32.2145 26.0367 32.6454 25.1857 32.8446C24.3348 33.0438 23.4632 32.9902 22.5709 32.6836C21.6787 32.3771 20.8278 31.8002 20.0181 30.953C19.206 30.1032 18.6695 29.2258 18.4087 28.3207C18.1455 27.4131 18.1326 26.5387 18.3702 25.6977C18.6078 24.8566 19.0706 24.1073 19.7586 23.4498C20.1976 23.0302 20.6647 22.7017 21.1599 22.4643C21.655 22.2269 22.1643 22.0864 22.6877 22.043C23.2087 21.9971 23.7285 22.0553 24.2473 22.2178C24.7661 22.3752 25.2649 22.6452 25.7435 23.0278Z" fill="white"/>
<path d="M32.7733 26.7007L26.5273 17.7567L32.3445 13.6943L33.293 15.0525L29.0961 17.9834L30.7918 20.4116L34.6873 17.6911L35.6358 19.0493L31.7402 21.7698L33.4451 24.211L37.6769 21.2558L38.6254 22.614L32.7733 26.7007Z" fill="white"/>
<path d="M40.9043 21.224L37.0298 11.0262L40.854 9.57323C41.6374 9.27558 42.3464 9.16195 42.981 9.23236C43.6188 9.30151 44.1672 9.53002 44.6261 9.9179C45.087 10.3012 45.4411 10.8182 45.6883 11.4688C45.9368 12.1228 46.013 12.7434 45.917 13.3307C45.8231 13.9134 45.5571 14.438 45.119 14.9046C44.6796 15.3679 44.0682 15.7483 43.2847 16.046L40.561 17.0808L39.9783 15.5472L42.4531 14.6069C42.9112 14.4329 43.2623 14.2273 43.5065 13.9901C43.7495 13.7497 43.894 13.4801 43.9401 13.1815C43.9882 12.8783 43.9436 12.5458 43.8061 12.1839C43.6686 11.8221 43.4799 11.5405 43.2401 11.3391C42.999 11.1344 42.7071 11.0212 42.3645 10.9994C42.0207 10.9743 41.6181 11.0494 41.1566 11.2247L39.4636 11.8679L42.7517 20.5222L40.9043 21.224ZM44.4169 14.6015L48.6971 18.2633L46.6357 19.0465L42.4002 15.3677L44.4169 14.6015Z" fill="white"/>
<path d="M47.8578 9.08255L47.605 7.44535L56.2069 6.11719L56.4597 7.75439L53.1274 8.26891L54.5392 17.413L52.602 17.7122L51.1901 8.56803L47.8578 9.08255Z" fill="white"/>
<path d="M62.5508 6.14324L62.318 17.0499L60.3423 17.0077L60.5751 6.10107L62.5508 6.14324Z" fill="white"/>
<path d="M66.2793 17.2571L68.4025 6.55664L75.2575 7.91679L74.935 9.54172L70.0185 8.56618L69.4421 11.4712L73.8884 12.3534L73.566 13.9784L69.1196 13.0961L68.2177 17.6417L66.2793 17.2571Z" fill="white"/>
<path d="M81.8532 10.4136L77.9042 20.5829L76.062 19.8675L80.011 9.69824L81.8532 10.4136Z" fill="white"/>
<path d="M81.0386 21.7083L87.1498 12.6716L93.0272 16.6463L92.0991 18.0186L87.8588 15.151L86.1997 17.6043L90.1356 20.266L89.2076 21.6383L85.2717 18.9765L83.6036 21.4431L87.8793 24.3346L86.9512 25.7068L81.0386 21.7083Z" fill="white"/>
<path d="M92.015 30.6167L89.4023 28.0013L97.1203 20.2915L99.7856 22.9596C100.551 23.7259 101.054 24.5385 101.295 25.3974C101.54 26.2563 101.524 27.1213 101.244 27.9925C100.965 28.8637 100.425 29.6996 99.6234 30.5002C98.8195 31.3033 97.9793 31.844 97.1028 32.1222C96.2288 32.403 95.3575 32.4176 94.4888 32.1661C93.6226 31.917 92.798 31.4006 92.015 30.6167ZM92.0087 28.191L93.1569 29.3404C93.694 29.8781 94.2399 30.2287 94.7948 30.3922C95.3522 30.5532 95.9171 30.5284 96.4898 30.3177C97.0649 30.1046 97.6477 29.7031 98.2381 29.1133C98.8285 28.5236 99.228 27.9437 99.4368 27.3738C99.648 26.8014 99.6734 26.2415 99.513 25.694C99.3576 25.1465 99.0189 24.6115 98.4968 24.0889L97.3072 22.8981L92.0087 28.191Z" fill="white"/>
<circle cx="60" cy="60" r="37.5" fill="white"/>
<path d="M36.2417 70.3906C36.5985 70.3932 36.95 70.4583 37.2964 70.5859C37.6427 70.7135 37.9552 70.9219 38.2339 71.2109C38.5151 71.5 38.7391 71.8906 38.9058 72.3828C39.075 72.8724 39.161 73.4818 39.1636 74.2109C39.1636 74.9115 39.0933 75.5352 38.9526 76.082C38.812 76.6263 38.6102 77.0859 38.3472 77.4609C38.0868 77.8359 37.7703 78.1211 37.3979 78.3164C37.0256 78.5117 36.6063 78.6094 36.1401 78.6094C35.6636 78.6094 35.2404 78.5156 34.8706 78.3281C34.5008 78.1406 34.2 77.8815 33.9683 77.5508C33.7365 77.2174 33.592 76.8346 33.5347 76.4023H34.7261C34.8042 76.7461 34.9631 77.0247 35.2026 77.2383C35.4448 77.4492 35.7573 77.5547 36.1401 77.5547C36.7261 77.5547 37.1831 77.2995 37.5112 76.7891C37.8394 76.276 38.0047 75.5599 38.0073 74.6406H37.9448C37.8094 74.8646 37.6401 75.0573 37.437 75.2187C37.2365 75.3802 37.0112 75.5052 36.7612 75.5937C36.5112 75.6823 36.2443 75.7266 35.9604 75.7266C35.4995 75.7266 35.0802 75.6133 34.7026 75.3867C34.325 75.1602 34.0243 74.849 33.8003 74.4531C33.5763 74.0573 33.4644 73.6055 33.4644 73.0977C33.4644 72.5924 33.5789 72.1341 33.8081 71.7227C34.0399 71.3112 34.3628 70.9857 34.7769 70.7461C35.1935 70.5039 35.6818 70.3854 36.2417 70.3906ZM36.2456 71.4062C35.9409 71.4062 35.6662 71.4818 35.4214 71.6328C35.1792 71.7812 34.9878 71.9831 34.8472 72.2383C34.7065 72.4909 34.6362 72.7721 34.6362 73.082C34.6362 73.3919 34.7039 73.6732 34.8394 73.9258C34.9774 74.1758 35.1649 74.375 35.4019 74.5234C35.6414 74.6693 35.9149 74.7422 36.2222 74.7422C36.4513 74.7422 36.6649 74.6979 36.8628 74.6094C37.0607 74.5208 37.2339 74.3984 37.3823 74.2422C37.5308 74.0833 37.6466 73.9036 37.73 73.7031C37.8133 73.5026 37.855 73.2917 37.855 73.0703C37.855 72.776 37.7847 72.5026 37.644 72.25C37.506 71.9974 37.3159 71.7943 37.0737 71.6406C36.8315 71.4844 36.5555 71.4062 36.2456 71.4062ZM43.3599 78.6328C42.7427 78.6302 42.2153 78.4674 41.7778 78.1445C41.3403 77.8216 41.0057 77.3516 40.7739 76.7344C40.5422 76.1172 40.4263 75.3737 40.4263 74.5039C40.4263 73.6367 40.5422 72.8958 40.7739 72.2812C41.0083 71.6667 41.3442 71.1979 41.7817 70.875C42.2218 70.5521 42.7479 70.3906 43.3599 70.3906C43.9718 70.3906 44.4966 70.5534 44.9341 70.8789C45.3716 71.2018 45.7062 71.6706 45.938 72.2852C46.1724 72.8971 46.2896 73.6367 46.2896 74.5039C46.2896 75.3763 46.1737 76.1211 45.9419 76.7383C45.7101 77.3529 45.3755 77.8229 44.938 78.1484C44.5005 78.4714 43.9744 78.6328 43.3599 78.6328ZM43.3599 77.5898C43.9015 77.5898 44.3247 77.3255 44.6294 76.7969C44.9367 76.2682 45.0903 75.5039 45.0903 74.5039C45.0903 73.8398 45.02 73.2786 44.8794 72.8203C44.7414 72.3594 44.5422 72.0104 44.2817 71.7734C44.0239 71.5339 43.7166 71.4141 43.3599 71.4141C42.8208 71.4141 42.3976 71.6797 42.0903 72.2109C41.783 72.7422 41.6281 73.5065 41.6255 74.5039C41.6255 75.1706 41.6945 75.7344 41.8325 76.1953C41.9731 76.6536 42.1724 77.0013 42.4302 77.2383C42.688 77.4727 42.9979 77.5898 43.3599 77.5898ZM50.4604 78.6328C49.8433 78.6302 49.3159 78.4674 48.8784 78.1445C48.4409 77.8216 48.1063 77.3516 47.8745 76.7344C47.6427 76.1172 47.5269 75.3737 47.5269 74.5039C47.5269 73.6367 47.6427 72.8958 47.8745 72.2812C48.1089 71.6667 48.4448 71.1979 48.8823 70.875C49.3224 70.5521 49.8485 70.3906 50.4604 70.3906C51.0724 70.3906 51.5972 70.5534 52.0347 70.8789C52.4722 71.2018 52.8068 71.6706 53.0386 72.2852C53.2729 72.8971 53.3901 73.6367 53.3901 74.5039C53.3901 75.3763 53.2743 76.1211 53.0425 76.7383C52.8107 77.3529 52.4761 77.8229 52.0386 78.1484C51.6011 78.4714 51.075 78.6328 50.4604 78.6328ZM50.4604 77.5898C51.0021 77.5898 51.4253 77.3255 51.73 76.7969C52.0373 76.2682 52.1909 75.5039 52.1909 74.5039C52.1909 73.8398 52.1206 73.2786 51.98 72.8203C51.842 72.3594 51.6427 72.0104 51.3823 71.7734C51.1245 71.5339 50.8172 71.4141 50.4604 71.4141C49.9214 71.4141 49.4982 71.6797 49.1909 72.2109C48.8836 72.7422 48.7287 73.5065 48.7261 74.5039C48.7261 75.1706 48.7951 75.7344 48.9331 76.1953C49.0737 76.6536 49.2729 77.0013 49.5308 77.2383C49.7886 77.4727 50.0985 77.5898 50.4604 77.5898ZM57.811 70.5V78.5H56.6001V71.7109H56.5532L54.6392 72.9609V71.8047L56.6353 70.5H57.811ZM60.7603 77.5078C60.5467 77.5078 60.3631 77.4323 60.2095 77.2812C60.0558 77.1276 59.979 76.9427 59.979 76.7266C59.979 76.513 60.0558 76.3307 60.2095 76.1797C60.3631 76.026 60.5467 75.9492 60.7603 75.9492C60.9738 75.9492 61.1574 76.026 61.311 76.1797C61.4647 76.3307 61.5415 76.513 61.5415 76.7266C61.5415 76.8698 61.505 77.0013 61.4321 77.1211C61.3618 77.2383 61.2681 77.332 61.1509 77.4023C61.0337 77.4727 60.9035 77.5078 60.7603 77.5078ZM60.7603 73.5C60.5467 73.5 60.3631 73.4245 60.2095 73.2734C60.0558 73.1198 59.979 72.9349 59.979 72.7187C59.979 72.5052 60.0558 72.3229 60.2095 72.1719C60.3631 72.0182 60.5467 71.9414 60.7603 71.9414C60.9738 71.9414 61.1574 72.0182 61.311 72.1719C61.4647 72.3229 61.5415 72.5052 61.5415 72.7187C61.5415 72.862 61.505 72.9935 61.4321 73.1133C61.3618 73.2305 61.2681 73.3242 61.1509 73.3945C61.0337 73.4648 60.9035 73.5 60.7603 73.5ZM63.0903 78.5V77.625L65.7974 74.8203C66.0864 74.5156 66.3247 74.2487 66.5122 74.0195C66.7023 73.7878 66.8442 73.5677 66.938 73.3594C67.0317 73.151 67.0786 72.9297 67.0786 72.6953C67.0786 72.4297 67.0161 72.2005 66.8911 72.0078C66.7661 71.8125 66.5955 71.6628 66.3794 71.5586C66.1632 71.4518 65.9198 71.3984 65.6489 71.3984C65.3625 71.3984 65.1125 71.457 64.8989 71.5742C64.6854 71.6914 64.5213 71.8568 64.4067 72.0703C64.2922 72.2839 64.2349 72.5339 64.2349 72.8203H63.0825C63.0825 72.3333 63.1945 71.9076 63.4185 71.543C63.6424 71.1784 63.9497 70.8958 64.3403 70.6953C64.731 70.4922 65.175 70.3906 65.6724 70.3906C66.175 70.3906 66.6177 70.4909 67.0005 70.6914C67.3859 70.8893 67.6867 71.1602 67.9028 71.5039C68.119 71.8451 68.2271 72.2305 68.2271 72.6602C68.2271 72.957 68.1711 73.2474 68.0591 73.5312C67.9497 73.8151 67.7583 74.1315 67.4849 74.4805C67.2114 74.8268 66.8312 75.2474 66.3442 75.7422L64.7544 77.4062V77.4648H68.356V78.5H63.0903ZM72.6216 78.6328C72.0044 78.6302 71.4771 78.4674 71.0396 78.1445C70.6021 77.8216 70.2674 77.3516 70.0356 76.7344C69.8039 76.1172 69.688 75.3737 69.688 74.5039C69.688 73.6367 69.8039 72.8958 70.0356 72.2812C70.27 71.6667 70.606 71.1979 71.0435 70.875C71.4836 70.5521 72.0096 70.3906 72.6216 70.3906C73.2336 70.3906 73.7583 70.5534 74.1958 70.8789C74.6333 71.2018 74.9679 71.6706 75.1997 72.2852C75.4341 72.8971 75.5513 73.6367 75.5513 74.5039C75.5513 75.3763 75.4354 76.1211 75.2036 76.7383C74.9718 77.3529 74.6372 77.8229 74.1997 78.1484C73.7622 78.4714 73.2362 78.6328 72.6216 78.6328ZM72.6216 77.5898C73.1632 77.5898 73.5864 77.3255 73.8911 76.7969C74.1984 76.2682 74.3521 75.5039 74.3521 74.5039C74.3521 73.8398 74.2817 73.2786 74.1411 72.8203C74.0031 72.3594 73.8039 72.0104 73.5435 71.7734C73.2856 71.5339 72.9784 71.4141 72.6216 71.4141C72.0825 71.4141 71.6593 71.6797 71.3521 72.2109C71.0448 72.7422 70.8898 73.5065 70.8872 74.5039C70.8872 75.1706 70.9562 75.7344 71.0942 76.1953C71.2349 76.6536 71.4341 77.0013 71.6919 77.2383C71.9497 77.4727 72.2596 77.5898 72.6216 77.5898ZM79.9722 70.5V78.5H78.7612V71.7109H78.7144L76.8003 72.9609V71.8047L78.7964 70.5H79.9722ZM84.7769 78.6094C84.2873 78.6094 83.8472 78.5156 83.4565 78.3281C83.0685 78.138 82.7586 77.8776 82.5269 77.5469C82.2951 77.2161 82.1714 76.8385 82.1558 76.4141H83.3276C83.3563 76.7578 83.5086 77.0404 83.7847 77.2617C84.0607 77.4831 84.3914 77.5937 84.7769 77.5937C85.0841 77.5937 85.3563 77.5234 85.5933 77.3828C85.8328 77.2396 86.0203 77.043 86.1558 76.793C86.2938 76.543 86.3628 76.2578 86.3628 75.9375C86.3628 75.612 86.2925 75.3216 86.1519 75.0664C86.0112 74.8112 85.8172 74.6107 85.5698 74.4648C85.325 74.319 85.0438 74.2448 84.7261 74.2422C84.4839 74.2422 84.2404 74.2839 83.9956 74.3672C83.7508 74.4505 83.5529 74.5599 83.4019 74.6953L82.2964 74.5312L82.7456 70.5H87.144V71.5352H83.7495L83.4956 73.7734H83.5425C83.6987 73.6224 83.9058 73.4961 84.1636 73.3945C84.424 73.293 84.7026 73.2422 84.9995 73.2422C85.4865 73.2422 85.9201 73.3581 86.3003 73.5898C86.6831 73.8216 86.9839 74.138 87.2026 74.5391C87.424 74.9375 87.5334 75.3958 87.5308 75.9141C87.5334 76.4323 87.4162 76.8945 87.1792 77.3008C86.9448 77.707 86.6193 78.0273 86.2026 78.2617C85.7886 78.4935 85.3133 78.6094 84.7769 78.6094Z" fill="black"/>
<path d="M41.3944 41.6818V63.5H36.121V41.6818H41.3944ZM56.4983 48.223C56.4273 47.4418 56.1112 46.8345 55.5502 46.4013C54.9962 45.9609 54.2043 45.7408 53.1744 45.7408C52.4926 45.7408 51.9244 45.8295 51.4699 46.0071C51.0154 46.1847 50.6744 46.4297 50.4472 46.7422C50.2199 47.0476 50.1027 47.3991 50.0956 47.7969C50.0814 48.1236 50.1453 48.4112 50.2874 48.6598C50.4365 48.9084 50.6496 49.1286 50.9266 49.3203C51.2107 49.505 51.5516 49.6683 51.9493 49.8104C52.347 49.9524 52.7945 50.0767 53.2916 50.1832L55.1666 50.6094C56.2462 50.8438 57.1979 51.1562 58.0218 51.5469C58.8527 51.9375 59.5487 52.4027 60.1098 52.9425C60.678 53.4822 61.1077 54.1037 61.3989 54.8068C61.6901 55.5099 61.8392 56.2983 61.8463 57.1719C61.8392 58.5497 61.4912 59.7322 60.8023 60.7195C60.1134 61.7067 59.1226 62.4631 57.83 62.9886C56.5445 63.5142 54.9926 63.777 53.1744 63.777C51.3492 63.777 49.7583 63.5036 48.4017 62.9567C47.0452 62.4098 45.9905 61.5788 45.2377 60.4638C44.4848 59.3487 44.0977 57.9389 44.0764 56.2344H49.1262C49.1688 56.9375 49.357 57.5234 49.6908 57.9922C50.0246 58.4609 50.4827 58.8161 51.0651 59.0575C51.6546 59.299 52.3364 59.4197 53.1105 59.4197C53.8208 59.4197 54.4244 59.3239 54.9216 59.1321C55.4259 58.9403 55.8129 58.674 56.0828 58.3331C56.3527 57.9922 56.4912 57.6016 56.4983 57.1612C56.4912 56.7493 56.3634 56.3977 56.1148 56.1065C55.8662 55.8082 55.4827 55.5526 54.9642 55.3395C54.4529 55.1193 53.7994 54.9169 53.004 54.7322L50.7242 54.1996C48.835 53.7663 47.347 53.0668 46.2604 52.1009C45.1737 51.1278 44.634 49.8139 44.6411 48.1591C44.634 46.8097 44.9962 45.6271 45.7277 44.6115C46.4593 43.5959 47.4713 42.804 48.7639 42.2358C50.0566 41.6676 51.5303 41.3835 53.1851 41.3835C54.8754 41.3835 56.3421 41.6712 57.585 42.2464C58.835 42.8146 59.8044 43.6136 60.4933 44.6435C61.1823 45.6733 61.5338 46.8665 61.548 48.223H56.4983ZM85.1027 52.5909C85.1027 54.9915 84.6411 57.0263 83.7178 58.6953C82.7945 60.3643 81.5445 61.6321 79.9678 62.4986C78.3982 63.3651 76.6368 63.7983 74.6837 63.7983C72.7235 63.7983 70.9585 63.3615 69.3889 62.4879C67.8193 61.6143 66.5729 60.3466 65.6496 58.6847C64.7334 57.0156 64.2753 54.9844 64.2753 52.5909C64.2753 50.1903 64.7334 48.1555 65.6496 46.4865C66.5729 44.8175 67.8193 43.5497 69.3889 42.6832C70.9585 41.8168 72.7235 41.3835 74.6837 41.3835C76.6368 41.3835 78.3982 41.8168 79.9678 42.6832C81.5445 43.5497 82.7945 44.8175 83.7178 46.4865C84.6411 48.1555 85.1027 50.1903 85.1027 52.5909ZM79.7121 52.5909C79.7121 51.1705 79.5097 49.9702 79.1048 48.9901C78.7071 48.0099 78.1318 47.2678 77.379 46.7635C76.6333 46.2592 75.7348 46.0071 74.6837 46.0071C73.6396 46.0071 72.7412 46.2592 71.9884 46.7635C71.2355 47.2678 70.6567 48.0099 70.2519 48.9901C69.8541 49.9702 69.6553 51.1705 69.6553 52.5909C69.6553 54.0114 69.8541 55.2116 70.2519 56.1918C70.6567 57.1719 71.2355 57.9141 71.9884 58.4183C72.7412 58.9226 73.6396 59.1747 74.6837 59.1747C75.7348 59.1747 76.6333 58.9226 77.379 58.4183C78.1318 57.9141 78.7071 57.1719 79.1048 56.1918C79.5097 55.2116 79.7121 54.0114 79.7121 52.5909Z" fill="black"/>
<path d="M89.0918 92.7886L90.5371 91.0879L95.9427 92.1796L96.0117 92.0985L94.0625 86.9397L95.5079 85.239L98.1496 92.6921L101.251 95.3275L99.9743 96.8293L96.8733 94.1939L89.0918 92.7886Z" fill="white"/>
<path d="M26.4305 93.2384L25.1405 91.7203C25.3527 91.4654 25.5054 91.1982 25.5987 90.9185C25.6946 90.6366 25.7367 90.3516 25.7248 90.0634C25.7129 89.7752 25.6465 89.4915 25.5256 89.2121C25.4097 88.9331 25.2437 88.6664 25.0276 88.4121C24.6435 87.9601 24.1896 87.6562 23.6656 87.5003C23.1444 87.3421 22.582 87.3493 21.9784 87.522C21.3776 87.6923 20.7646 88.0431 20.1395 88.5743C19.5036 89.1147 19.0517 89.6688 18.7839 90.2365C18.5211 90.8047 18.4259 91.3563 18.4984 91.8912C18.5758 92.4265 18.8054 92.9188 19.1871 93.368C19.3987 93.617 19.6289 93.8221 19.8778 93.9834C20.1317 94.1451 20.3972 94.2574 20.6742 94.3202C20.9536 94.3857 21.2386 94.3975 21.5292 94.3556C21.8221 94.3164 22.1099 94.2164 22.3925 94.0554L23.6744 95.5804C23.231 95.8593 22.7557 96.0512 22.2483 96.1561C21.7433 96.2637 21.2294 96.2787 20.7066 96.201C20.1866 96.1209 19.6797 95.9412 19.186 95.6618C18.6949 95.38 18.239 94.9915 17.8182 94.4963C17.1973 93.7657 16.8122 92.9698 16.663 92.1087C16.5138 91.2475 16.6182 90.3806 16.9763 89.5077C17.3344 88.6349 17.96 87.8191 18.853 87.0603C19.7487 86.2991 20.6559 85.8148 21.5747 85.6073C22.4962 85.3974 23.3698 85.4356 24.1955 85.7219C25.0213 86.0081 25.7423 86.5139 26.3586 87.2391C26.7518 87.7018 27.0524 88.1873 27.2606 88.6955C27.4687 89.2036 27.5792 89.7202 27.5919 90.2453C27.6074 90.7681 27.5189 91.2836 27.3265 91.792C27.139 92.3008 26.8404 92.7829 26.4305 93.2384Z" fill="white"/>
<path d="M36.2533 102.743C35.5709 103.7 34.8072 104.392 33.9622 104.818C33.1221 105.244 32.2652 105.419 31.3916 105.341C30.5209 105.265 29.6967 104.95 28.9189 104.396C28.1411 103.841 27.5731 103.164 27.2149 102.363C26.8616 101.562 26.7479 100.693 26.8738 99.7583C27.0047 98.8223 27.4103 97.8772 28.0906 96.923C28.7729 95.966 29.5342 95.2744 30.3743 94.8485C31.2193 94.4217 32.0772 94.2462 32.9479 94.3218C33.8215 94.3994 34.6472 94.7155 35.425 95.2701C36.2028 95.8246 36.7694 96.5011 37.1247 97.2996C37.4829 98.1001 37.5965 98.9684 37.4657 99.9043C37.3398 100.839 36.9356 101.786 36.2533 102.743ZM34.6355 101.589C35.1158 100.916 35.4154 100.272 35.5341 99.659C35.6578 99.045 35.6192 98.4875 35.4181 97.9866C35.2191 97.4827 34.8781 97.0586 34.3953 96.7144C33.9124 96.3701 33.4003 96.186 32.8591 96.1621C32.32 96.1354 31.7789 96.2795 31.2359 96.5946C30.6979 96.9088 30.1887 97.4027 29.7084 98.0765C29.228 98.7502 28.926 99.394 28.8023 100.008C28.6835 100.621 28.7237 101.18 28.9227 101.683C29.1237 102.184 29.4657 102.607 29.9486 102.951C30.4315 103.296 30.9425 103.481 31.4817 103.508C32.0229 103.532 32.5625 103.387 33.1005 103.072C33.6435 102.757 34.1552 102.263 34.6355 101.589Z" fill="white"/>
<path d="M42.1628 100.083L44.4619 100.834L45.0891 109.353L45.2106 109.393L50.7413 102.882L53.0403 103.632L49.6568 114.003L47.854 113.415L50.1786 106.29L50.0823 106.259L44.9015 112.418L43.5545 111.979L43.0078 103.934L42.9116 103.902L40.5821 111.043L38.7793 110.455L42.1628 100.083Z" fill="white"/>
<path d="M56.749 114.5V103.591H60.8399C61.678 103.591 62.3811 103.747 62.9493 104.06C63.521 104.372 63.9525 104.802 64.2437 105.349C64.5384 105.892 64.6858 106.51 64.6858 107.202C64.6858 107.902 64.5384 108.523 64.2437 109.067C63.949 109.61 63.5139 110.038 62.9387 110.35C62.3634 110.659 61.6549 110.814 60.8133 110.814H58.102V109.189H60.547C61.037 109.189 61.4383 109.104 61.7508 108.934C62.0633 108.763 62.2941 108.529 62.4433 108.23C62.596 107.932 62.6723 107.589 62.6723 107.202C62.6723 106.815 62.596 106.474 62.4433 106.18C62.2941 105.885 62.0615 105.656 61.7455 105.492C61.433 105.326 61.0299 105.242 60.5363 105.242H58.7252V114.5H56.749Z" fill="white"/>
<path d="M71.4404 113.067L69.4351 113.721L69.7024 102.159L72.0217 101.402L79.0617 110.58L77.0564 111.235L71.5965 103.894L71.5155 103.921L71.4404 113.067ZM70.1795 108.979L75.6486 107.195L76.141 108.704L70.6719 110.488L70.1795 108.979Z" fill="white"/>
<path d="M85.9155 94.6599L92.2489 103.542L90.8177 104.563L82.3184 101.497L82.2447 101.549L86.5587 107.6L84.9496 108.747L78.6162 99.8646L80.0561 98.8378L88.5542 101.911L88.6322 101.856L84.3152 95.801L85.9155 94.6599Z" fill="white"/>
</svg>
