<svg width="120" height="120" viewBox="0 0 120 120" fill="none" xmlns="http://www.w3.org/2000/svg">
<circle cx="60" cy="60" r="39.5" stroke="white"/>
<circle cx="60" cy="60" r="59" stroke="white" stroke-width="2"/>
<path d="M25.7435 23.0278L24.3032 24.4042C24.0364 24.2073 23.7607 24.0704 23.4761 23.9936C23.1891 23.9143 22.9021 23.889 22.6151 23.9176C22.3281 23.9463 22.0487 24.0291 21.7768 24.1661C21.5051 24.2981 21.2486 24.4794 21.0072 24.71C20.5785 25.1198 20.3016 25.5907 20.1765 26.1229C20.049 26.6525 20.089 27.2135 20.2966 27.8059C20.5018 28.3958 20.8877 28.9872 21.4545 29.5803C22.0311 30.1836 22.6106 30.6023 23.193 30.8366C23.7755 31.0658 24.3317 31.1286 24.8615 31.0251C25.3914 30.9165 25.8694 30.6586 26.2956 30.2513C26.5318 30.0256 26.7231 29.7838 26.8696 29.5259C27.0163 29.263 27.1128 28.9914 27.1594 28.7111C27.2085 28.4284 27.2036 28.1432 27.1448 27.8556C27.0886 27.5655 26.9719 27.284 26.7948 27.0113L28.2424 25.6425C28.5467 26.0689 28.766 26.5322 28.9003 27.0326C29.0372 27.5305 29.0821 28.0426 29.035 28.569C28.9855 29.0928 28.8357 29.6094 28.5855 30.1186C28.3329 30.6252 27.9717 31.1031 27.5019 31.5521C26.8087 32.2145 26.0367 32.6454 25.1857 32.8446C24.3348 33.0438 23.4632 32.9902 22.5709 32.6836C21.6787 32.3771 20.8278 31.8002 20.0181 30.953C19.206 30.1032 18.6695 29.2258 18.4087 28.3207C18.1455 27.4131 18.1326 26.5387 18.3702 25.6977C18.6078 24.8566 19.0706 24.1073 19.7586 23.4498C20.1976 23.0302 20.6647 22.7017 21.1599 22.4643C21.655 22.2269 22.1643 22.0864 22.6877 22.043C23.2087 21.9971 23.7285 22.0553 24.2473 22.2178C24.7661 22.3752 25.2649 22.6452 25.7435 23.0278Z" fill="white"/>
<path d="M32.7733 26.7007L26.5273 17.7567L32.3445 13.6943L33.293 15.0525L29.0961 17.9834L30.7918 20.4116L34.6873 17.6911L35.6358 19.0493L31.7402 21.7698L33.4451 24.211L37.6769 21.2558L38.6254 22.614L32.7733 26.7007Z" fill="white"/>
<path d="M40.9043 21.224L37.0298 11.0262L40.854 9.57323C41.6374 9.27558 42.3464 9.16195 42.981 9.23236C43.6188 9.30151 44.1672 9.53002 44.6261 9.9179C45.087 10.3012 45.4411 10.8182 45.6883 11.4688C45.9368 12.1228 46.013 12.7434 45.917 13.3307C45.8231 13.9134 45.5571 14.438 45.119 14.9046C44.6796 15.3679 44.0682 15.7483 43.2847 16.046L40.561 17.0808L39.9783 15.5472L42.4531 14.6069C42.9112 14.4329 43.2623 14.2273 43.5065 13.9901C43.7495 13.7497 43.894 13.4801 43.9401 13.1815C43.9882 12.8783 43.9436 12.5458 43.8061 12.1839C43.6686 11.8221 43.4799 11.5405 43.2401 11.3391C42.999 11.1344 42.7071 11.0212 42.3645 10.9994C42.0207 10.9743 41.6181 11.0494 41.1566 11.2247L39.4636 11.8679L42.7517 20.5222L40.9043 21.224ZM44.4169 14.6015L48.6971 18.2633L46.6357 19.0465L42.4002 15.3677L44.4169 14.6015Z" fill="white"/>
<path d="M47.8578 9.08255L47.605 7.44535L56.2069 6.11719L56.4597 7.75439L53.1274 8.26891L54.5392 17.413L52.602 17.7122L51.1901 8.56803L47.8578 9.08255Z" fill="white"/>
<path d="M62.5508 6.14324L62.318 17.0499L60.3423 17.0077L60.5751 6.10107L62.5508 6.14324Z" fill="white"/>
<path d="M66.2793 17.2571L68.4025 6.55664L75.2575 7.91679L74.935 9.54172L70.0185 8.56618L69.4421 11.4712L73.8884 12.3534L73.566 13.9784L69.1196 13.0961L68.2177 17.6417L66.2793 17.2571Z" fill="white"/>
<path d="M81.8532 10.4136L77.9042 20.5829L76.062 19.8675L80.011 9.69824L81.8532 10.4136Z" fill="white"/>
<path d="M81.0386 21.7083L87.1498 12.6716L93.0272 16.6463L92.0991 18.0186L87.8588 15.151L86.1997 17.6043L90.1356 20.266L89.2076 21.6383L85.2717 18.9765L83.6036 21.4431L87.8793 24.3346L86.9512 25.7068L81.0386 21.7083Z" fill="white"/>
<path d="M92.015 30.6167L89.4023 28.0013L97.1203 20.2915L99.7856 22.9596C100.551 23.7259 101.054 24.5385 101.295 25.3974C101.54 26.2563 101.524 27.1213 101.244 27.9925C100.965 28.8637 100.425 29.6996 99.6234 30.5002C98.8195 31.3033 97.9793 31.844 97.1028 32.1222C96.2288 32.403 95.3575 32.4176 94.4888 32.1661C93.6226 31.917 92.798 31.4006 92.015 30.6167ZM92.0087 28.191L93.1569 29.3404C93.694 29.8781 94.2399 30.2287 94.7948 30.3922C95.3522 30.5532 95.9171 30.5284 96.4898 30.3177C97.0649 30.1046 97.6477 29.7031 98.2381 29.1133C98.8285 28.5236 99.228 27.9437 99.4368 27.3738C99.648 26.8014 99.6734 26.2415 99.513 25.694C99.3576 25.1465 99.0189 24.6115 98.4968 24.0889L97.3072 22.8981L92.0087 28.191Z" fill="white"/>
<circle cx="60" cy="60" r="37.5" fill="white"/>
<path d="M31.3315 78.5V77.625L34.0386 74.8203C34.3276 74.5156 34.5659 74.2487 34.7534 74.0195C34.9435 73.7878 35.0854 73.5677 35.1792 73.3594C35.2729 73.151 35.3198 72.9297 35.3198 72.6953C35.3198 72.4297 35.2573 72.2005 35.1323 72.0078C35.0073 71.8125 34.8368 71.6628 34.6206 71.5586C34.4045 71.4518 34.161 71.3984 33.8901 71.3984C33.6037 71.3984 33.3537 71.457 33.1401 71.5742C32.9266 71.6914 32.7625 71.8568 32.6479 72.0703C32.5334 72.2839 32.4761 72.5339 32.4761 72.8203H31.3237C31.3237 72.3333 31.4357 71.9076 31.6597 71.543C31.8836 71.1784 32.1909 70.8958 32.5815 70.6953C32.9722 70.4922 33.4162 70.3906 33.9136 70.3906C34.4162 70.3906 34.8589 70.4909 35.2417 70.6914C35.6271 70.8893 35.9279 71.1602 36.144 71.5039C36.3602 71.8451 36.4683 72.2305 36.4683 72.6602C36.4683 72.957 36.4123 73.2474 36.3003 73.5312C36.1909 73.8151 35.9995 74.1315 35.7261 74.4805C35.4526 74.8268 35.0724 75.2474 34.5854 75.7422L32.9956 77.4062V77.4648H36.5972V78.5H31.3315ZM38.3472 78.5L41.8394 71.5937V71.5352H37.8003V70.5H43.0894V71.5703L39.6089 78.5H38.3472ZM47.061 78.6328C46.4438 78.6302 45.9165 78.4674 45.479 78.1445C45.0415 77.8216 44.7069 77.3516 44.4751 76.7344C44.2433 76.1172 44.1274 75.3737 44.1274 74.5039C44.1274 73.6367 44.2433 72.8958 44.4751 72.2812C44.7095 71.6667 45.0454 71.1979 45.4829 70.875C45.923 70.5521 46.4491 70.3906 47.061 70.3906C47.673 70.3906 48.1978 70.5534 48.6353 70.8789C49.0728 71.2018 49.4074 71.6706 49.6392 72.2852C49.8735 72.8971 49.9907 73.6367 49.9907 74.5039C49.9907 75.3763 49.8748 76.1211 49.6431 76.7383C49.4113 77.3529 49.0767 77.8229 48.6392 78.1484C48.2017 78.4714 47.6756 78.6328 47.061 78.6328ZM47.061 77.5898C47.6027 77.5898 48.0259 77.3255 48.3306 76.7969C48.6379 76.2682 48.7915 75.5039 48.7915 74.5039C48.7915 73.8398 48.7212 73.2786 48.5806 72.8203C48.4425 72.3594 48.2433 72.0104 47.9829 71.7734C47.7251 71.5339 47.4178 71.4141 47.061 71.4141C46.522 71.4141 46.0988 71.6797 45.7915 72.2109C45.4842 72.7422 45.3293 73.5065 45.3267 74.5039C45.3267 75.1706 45.3957 75.7344 45.5337 76.1953C45.6743 76.6536 45.8735 77.0013 46.1313 77.2383C46.3892 77.4727 46.6991 77.5898 47.061 77.5898ZM54.1616 78.6328C53.5444 78.6302 53.0171 78.4674 52.5796 78.1445C52.1421 77.8216 51.8075 77.3516 51.5757 76.7344C51.3439 76.1172 51.228 75.3737 51.228 74.5039C51.228 73.6367 51.3439 72.8958 51.5757 72.2812C51.8101 71.6667 52.146 71.1979 52.5835 70.875C53.0236 70.5521 53.5496 70.3906 54.1616 70.3906C54.7736 70.3906 55.2983 70.5534 55.7358 70.8789C56.1733 71.2018 56.508 71.6706 56.7397 72.2852C56.9741 72.8971 57.0913 73.6367 57.0913 74.5039C57.0913 75.3763 56.9754 76.1211 56.7437 76.7383C56.5119 77.3529 56.1772 77.8229 55.7397 78.1484C55.3022 78.4714 54.7762 78.6328 54.1616 78.6328ZM54.1616 77.5898C54.7033 77.5898 55.1265 77.3255 55.4312 76.7969C55.7384 76.2682 55.8921 75.5039 55.8921 74.5039C55.8921 73.8398 55.8218 73.2786 55.6812 72.8203C55.5431 72.3594 55.3439 72.0104 55.0835 71.7734C54.8257 71.5339 54.5184 71.4141 54.1616 71.4141C53.6226 71.4141 53.1994 71.6797 52.8921 72.2109C52.5848 72.7422 52.4299 73.5065 52.4272 74.5039C52.4272 75.1706 52.4963 75.7344 52.6343 76.1953C52.7749 76.6536 52.9741 77.0013 53.2319 77.2383C53.4897 77.4727 53.7996 77.5898 54.1616 77.5898ZM61.5122 70.5V78.5H60.3013V71.7109H60.2544L58.3403 72.9609V71.8047L60.3364 70.5H61.5122ZM64.4614 77.5078C64.2479 77.5078 64.0643 77.4323 63.9106 77.2812C63.757 77.1276 63.6802 76.9427 63.6802 76.7266C63.6802 76.513 63.757 76.3307 63.9106 76.1797C64.0643 76.026 64.2479 75.9492 64.4614 75.9492C64.675 75.9492 64.8586 76.026 65.0122 76.1797C65.1659 76.3307 65.2427 76.513 65.2427 76.7266C65.2427 76.8698 65.2062 77.0013 65.1333 77.1211C65.063 77.2383 64.9692 77.332 64.8521 77.4023C64.7349 77.4727 64.6047 77.5078 64.4614 77.5078ZM64.4614 73.5C64.2479 73.5 64.0643 73.4245 63.9106 73.2734C63.757 73.1198 63.6802 72.9349 63.6802 72.7187C63.6802 72.5052 63.757 72.3229 63.9106 72.1719C64.0643 72.0182 64.2479 71.9414 64.4614 71.9414C64.675 71.9414 64.8586 72.0182 65.0122 72.1719C65.1659 72.3229 65.2427 72.5052 65.2427 72.7187C65.2427 72.862 65.2062 72.9935 65.1333 73.1133C65.063 73.2305 64.9692 73.3242 64.8521 73.3945C64.7349 73.4648 64.6047 73.5 64.4614 73.5ZM66.7915 78.5V77.625L69.4985 74.8203C69.7876 74.5156 70.0259 74.2487 70.2134 74.0195C70.4035 73.7878 70.5454 73.5677 70.6392 73.3594C70.7329 73.151 70.7798 72.9297 70.7798 72.6953C70.7798 72.4297 70.7173 72.2005 70.5923 72.0078C70.4673 71.8125 70.2967 71.6628 70.0806 71.5586C69.8644 71.4518 69.6209 71.3984 69.3501 71.3984C69.0636 71.3984 68.8136 71.457 68.6001 71.5742C68.3866 71.6914 68.2225 71.8568 68.1079 72.0703C67.9933 72.2839 67.936 72.5339 67.936 72.8203H66.7837C66.7837 72.3333 66.8957 71.9076 67.1196 71.543C67.3436 71.1784 67.6509 70.8958 68.0415 70.6953C68.4321 70.4922 68.8761 70.3906 69.3735 70.3906C69.8761 70.3906 70.3188 70.4909 70.7017 70.6914C71.0871 70.8893 71.3879 71.1602 71.604 71.5039C71.8201 71.8451 71.9282 72.2305 71.9282 72.6602C71.9282 72.957 71.8722 73.2474 71.7603 73.5312C71.6509 73.8151 71.4595 74.1315 71.186 74.4805C70.9126 74.8268 70.5324 75.2474 70.0454 75.7422L68.4556 77.4062V77.4648H72.0571V78.5H66.7915ZM76.3228 78.6328C75.7056 78.6302 75.1782 78.4674 74.7407 78.1445C74.3032 77.8216 73.9686 77.3516 73.7368 76.7344C73.505 76.1172 73.3892 75.3737 73.3892 74.5039C73.3892 73.6367 73.505 72.8958 73.7368 72.2812C73.9712 71.6667 74.3071 71.1979 74.7446 70.875C75.1847 70.5521 75.7108 70.3906 76.3228 70.3906C76.9347 70.3906 77.4595 70.5534 77.897 70.8789C78.3345 71.2018 78.6691 71.6706 78.9009 72.2852C79.1353 72.8971 79.2524 73.6367 79.2524 74.5039C79.2524 75.3763 79.1366 76.1211 78.9048 76.7383C78.673 77.3529 78.3384 77.8229 77.9009 78.1484C77.4634 78.4714 76.9373 78.6328 76.3228 78.6328ZM76.3228 77.5898C76.8644 77.5898 77.2876 77.3255 77.5923 76.7969C77.8996 76.2682 78.0532 75.5039 78.0532 74.5039C78.0532 73.8398 77.9829 73.2786 77.8423 72.8203C77.7043 72.3594 77.505 72.0104 77.2446 71.7734C76.9868 71.5339 76.6795 71.4141 76.3228 71.4141C75.7837 71.4141 75.3605 71.6797 75.0532 72.2109C74.7459 72.7422 74.591 73.5065 74.5884 74.5039C74.5884 75.1706 74.6574 75.7344 74.7954 76.1953C74.936 76.6536 75.1353 77.0013 75.3931 77.2383C75.6509 77.4727 75.9608 77.5898 76.3228 77.5898ZM83.6733 70.5V78.5H82.4624V71.7109H82.4155L80.5015 72.9609V71.8047L82.4976 70.5H83.6733ZM86.1069 78.5L89.5991 71.5937V71.5352H85.5601V70.5H90.8491V71.5703L87.3687 78.5H86.1069Z" fill="black"/>
<path d="M41.3944 41.6818V63.5H36.121V41.6818H41.3944ZM56.4983 48.223C56.4273 47.4418 56.1112 46.8345 55.5502 46.4013C54.9962 45.9609 54.2043 45.7408 53.1744 45.7408C52.4926 45.7408 51.9244 45.8295 51.4699 46.0071C51.0154 46.1847 50.6744 46.4297 50.4472 46.7422C50.2199 47.0476 50.1027 47.3991 50.0956 47.7969C50.0814 48.1236 50.1453 48.4112 50.2874 48.6598C50.4365 48.9084 50.6496 49.1286 50.9266 49.3203C51.2107 49.505 51.5516 49.6683 51.9493 49.8104C52.347 49.9524 52.7945 50.0767 53.2916 50.1832L55.1666 50.6094C56.2462 50.8438 57.1979 51.1562 58.0218 51.5469C58.8527 51.9375 59.5487 52.4027 60.1098 52.9425C60.678 53.4822 61.1077 54.1037 61.3989 54.8068C61.6901 55.5099 61.8392 56.2983 61.8463 57.1719C61.8392 58.5497 61.4912 59.7322 60.8023 60.7195C60.1134 61.7067 59.1226 62.4631 57.83 62.9886C56.5445 63.5142 54.9926 63.777 53.1744 63.777C51.3492 63.777 49.7583 63.5036 48.4017 62.9567C47.0452 62.4098 45.9905 61.5788 45.2377 60.4638C44.4848 59.3487 44.0977 57.9389 44.0764 56.2344H49.1262C49.1688 56.9375 49.357 57.5234 49.6908 57.9922C50.0246 58.4609 50.4827 58.8161 51.0651 59.0575C51.6546 59.299 52.3364 59.4197 53.1105 59.4197C53.8208 59.4197 54.4244 59.3239 54.9216 59.1321C55.4259 58.9403 55.8129 58.674 56.0828 58.3331C56.3527 57.9922 56.4912 57.6016 56.4983 57.1612C56.4912 56.7493 56.3634 56.3977 56.1148 56.1065C55.8662 55.8082 55.4827 55.5526 54.9642 55.3395C54.4529 55.1193 53.7994 54.9169 53.004 54.7322L50.7242 54.1996C48.835 53.7663 47.347 53.0668 46.2604 52.1009C45.1737 51.1278 44.634 49.8139 44.6411 48.1591C44.634 46.8097 44.9962 45.6271 45.7277 44.6115C46.4593 43.5959 47.4713 42.804 48.7639 42.2358C50.0566 41.6676 51.5303 41.3835 53.1851 41.3835C54.8754 41.3835 56.3421 41.6712 57.585 42.2464C58.835 42.8146 59.8044 43.6136 60.4933 44.6435C61.1823 45.6733 61.5338 46.8665 61.548 48.223H56.4983ZM85.1027 52.5909C85.1027 54.9915 84.6411 57.0263 83.7178 58.6953C82.7945 60.3643 81.5445 61.6321 79.9678 62.4986C78.3982 63.3651 76.6368 63.7983 74.6837 63.7983C72.7235 63.7983 70.9585 63.3615 69.3889 62.4879C67.8193 61.6143 66.5729 60.3466 65.6496 58.6847C64.7334 57.0156 64.2753 54.9844 64.2753 52.5909C64.2753 50.1903 64.7334 48.1555 65.6496 46.4865C66.5729 44.8175 67.8193 43.5497 69.3889 42.6832C70.9585 41.8168 72.7235 41.3835 74.6837 41.3835C76.6368 41.3835 78.3982 41.8168 79.9678 42.6832C81.5445 43.5497 82.7945 44.8175 83.7178 46.4865C84.6411 48.1555 85.1027 50.1903 85.1027 52.5909ZM79.7121 52.5909C79.7121 51.1705 79.5097 49.9702 79.1048 48.9901C78.7071 48.0099 78.1318 47.2678 77.379 46.7635C76.6333 46.2592 75.7348 46.0071 74.6837 46.0071C73.6396 46.0071 72.7412 46.2592 71.9884 46.7635C71.2355 47.2678 70.6567 48.0099 70.2519 48.9901C69.8541 49.9702 69.6553 51.1705 69.6553 52.5909C69.6553 54.0114 69.8541 55.2116 70.2519 56.1918C70.6567 57.1719 71.2355 57.9141 71.9884 58.4183C72.7412 58.9226 73.6396 59.1747 74.6837 59.1747C75.7348 59.1747 76.6333 58.9226 77.379 58.4183C78.1318 57.9141 78.7071 57.1719 79.1048 56.1918C79.5097 55.2116 79.7121 54.0114 79.7121 52.5909Z" fill="black"/>
<path d="M89.0918 92.7886L90.5371 91.0879L95.9427 92.1796L96.0117 92.0985L94.0625 86.9397L95.5079 85.239L98.1496 92.6921L101.251 95.3275L99.9743 96.8293L96.8733 94.1939L89.0918 92.7886Z" fill="white"/>
<path d="M26.4305 93.2384L25.1405 91.7203C25.3527 91.4654 25.5054 91.1982 25.5987 90.9185C25.6946 90.6366 25.7367 90.3516 25.7248 90.0634C25.7129 89.7752 25.6465 89.4915 25.5256 89.2121C25.4097 88.9331 25.2437 88.6664 25.0276 88.4121C24.6435 87.9601 24.1896 87.6562 23.6656 87.5003C23.1444 87.3421 22.582 87.3493 21.9784 87.522C21.3776 87.6923 20.7646 88.0431 20.1395 88.5743C19.5036 89.1147 19.0517 89.6688 18.7839 90.2365C18.5211 90.8047 18.4259 91.3563 18.4984 91.8912C18.5758 92.4265 18.8054 92.9188 19.1871 93.368C19.3987 93.617 19.6289 93.8221 19.8778 93.9834C20.1317 94.1451 20.3972 94.2574 20.6742 94.3202C20.9536 94.3857 21.2386 94.3975 21.5292 94.3556C21.8221 94.3164 22.1099 94.2164 22.3925 94.0554L23.6744 95.5804C23.231 95.8593 22.7557 96.0512 22.2483 96.1561C21.7433 96.2637 21.2294 96.2787 20.7066 96.201C20.1866 96.1209 19.6797 95.9412 19.186 95.6618C18.6949 95.38 18.239 94.9915 17.8182 94.4963C17.1973 93.7657 16.8122 92.9698 16.663 92.1087C16.5138 91.2475 16.6182 90.3806 16.9763 89.5077C17.3344 88.6349 17.96 87.8191 18.853 87.0603C19.7487 86.2991 20.6559 85.8148 21.5747 85.6073C22.4962 85.3974 23.3698 85.4356 24.1955 85.7219C25.0213 86.0081 25.7423 86.5139 26.3586 87.2391C26.7518 87.7018 27.0524 88.1873 27.2606 88.6955C27.4687 89.2036 27.5792 89.7202 27.5919 90.2453C27.6074 90.7681 27.5189 91.2836 27.3265 91.792C27.139 92.3008 26.8404 92.7829 26.4305 93.2384Z" fill="white"/>
<path d="M36.2533 102.743C35.5709 103.7 34.8072 104.392 33.9622 104.818C33.1221 105.244 32.2652 105.419 31.3916 105.341C30.5209 105.265 29.6967 104.95 28.9189 104.396C28.1411 103.841 27.5731 103.164 27.2149 102.363C26.8616 101.562 26.7479 100.693 26.8738 99.7583C27.0047 98.8223 27.4103 97.8772 28.0906 96.923C28.7729 95.966 29.5342 95.2744 30.3743 94.8485C31.2193 94.4217 32.0772 94.2462 32.9479 94.3218C33.8215 94.3994 34.6472 94.7155 35.425 95.2701C36.2028 95.8246 36.7694 96.5011 37.1247 97.2996C37.4829 98.1001 37.5965 98.9684 37.4657 99.9043C37.3398 100.839 36.9356 101.786 36.2533 102.743ZM34.6355 101.589C35.1158 100.916 35.4154 100.272 35.5341 99.659C35.6578 99.045 35.6192 98.4875 35.4181 97.9866C35.2191 97.4827 34.8781 97.0586 34.3953 96.7144C33.9124 96.3701 33.4003 96.186 32.8591 96.1621C32.32 96.1354 31.7789 96.2795 31.2359 96.5946C30.6979 96.9088 30.1887 97.4027 29.7084 98.0765C29.228 98.7502 28.926 99.394 28.8023 100.008C28.6835 100.621 28.7237 101.18 28.9227 101.683C29.1237 102.184 29.4657 102.607 29.9486 102.951C30.4315 103.296 30.9425 103.481 31.4817 103.508C32.0229 103.532 32.5625 103.387 33.1005 103.072C33.6435 102.757 34.1552 102.263 34.6355 101.589Z" fill="white"/>
<path d="M42.1628 100.083L44.4619 100.834L45.0891 109.353L45.2106 109.393L50.7413 102.882L53.0403 103.632L49.6568 114.003L47.854 113.415L50.1786 106.29L50.0823 106.259L44.9015 112.418L43.5545 111.979L43.0078 103.934L42.9116 103.902L40.5821 111.043L38.7793 110.455L42.1628 100.083Z" fill="white"/>
<path d="M56.749 114.5V103.591H60.8399C61.678 103.591 62.3811 103.747 62.9493 104.06C63.521 104.372 63.9525 104.802 64.2437 105.349C64.5384 105.892 64.6858 106.51 64.6858 107.202C64.6858 107.902 64.5384 108.523 64.2437 109.067C63.949 109.61 63.5139 110.038 62.9387 110.35C62.3634 110.659 61.6549 110.814 60.8133 110.814H58.102V109.189H60.547C61.037 109.189 61.4383 109.104 61.7508 108.934C62.0633 108.763 62.2941 108.529 62.4433 108.23C62.596 107.932 62.6723 107.589 62.6723 107.202C62.6723 106.815 62.596 106.474 62.4433 106.18C62.2941 105.885 62.0615 105.656 61.7455 105.492C61.433 105.326 61.0299 105.242 60.5363 105.242H58.7252V114.5H56.749Z" fill="white"/>
<path d="M71.4404 113.067L69.4351 113.721L69.7024 102.159L72.0217 101.402L79.0617 110.58L77.0564 111.235L71.5965 103.894L71.5155 103.921L71.4404 113.067ZM70.1795 108.979L75.6486 107.195L76.141 108.704L70.6719 110.488L70.1795 108.979Z" fill="white"/>
<path d="M85.9155 94.6599L92.2489 103.542L90.8177 104.563L82.3184 101.497L82.2447 101.549L86.5587 107.6L84.9496 108.747L78.6162 99.8646L80.0561 98.8378L88.5542 101.911L88.6322 101.856L84.3152 95.801L85.9155 94.6599Z" fill="white"/>
</svg>
